<svg xmlns="http://www.w3.org/2000/svg" version="1.1" width="624" height="716">
<g id="Grid">
<rect x="-1" y="0" width="1" height="716" fill="rgb(234, 234, 234)" fill-opacity="1.000000" />
<rect x="6" y="0" width="1" height="716" fill="rgb(234, 234, 234)" fill-opacity="1.000000" />
<rect x="13" y="0" width="1" height="716" fill="rgb(234, 234, 234)" fill-opacity="1.000000" />
<rect x="20" y="0" width="1" height="716" fill="rgb(234, 234, 234)" fill-opacity="1.000000" />
<rect x="27" y="0" width="1" height="716" fill="rgb(234, 234, 234)" fill-opacity="1.000000" />
<rect x="34" y="0" width="1" height="716" fill="rgb(234, 234, 234)" fill-opacity="1.000000" />
<rect x="41" y="0" width="1" height="716" fill="rgb(234, 234, 234)" fill-opacity="1.000000" />
<rect x="48" y="0" width="1" height="716" fill="rgb(234, 234, 234)" fill-opacity="1.000000" />
<rect x="55" y="0" width="1" height="716" fill="rgb(234, 234, 234)" fill-opacity="1.000000" />
<rect x="62" y="0" width="1" height="716" fill="rgb(234, 234, 234)" fill-opacity="1.000000" />
<rect x="69" y="0" width="1" height="716" fill="rgb(234, 234, 234)" fill-opacity="1.000000" />
<rect x="76" y="0" width="1" height="716" fill="rgb(234, 234, 234)" fill-opacity="1.000000" />
<rect x="83" y="0" width="1" height="716" fill="rgb(234, 234, 234)" fill-opacity="1.000000" />
<rect x="90" y="0" width="1" height="716" fill="rgb(234, 234, 234)" fill-opacity="1.000000" />
<rect x="97" y="0" width="1" height="716" fill="rgb(234, 234, 234)" fill-opacity="1.000000" />
<rect x="104" y="0" width="1" height="716" fill="rgb(234, 234, 234)" fill-opacity="1.000000" />
<rect x="111" y="0" width="1" height="716" fill="rgb(234, 234, 234)" fill-opacity="1.000000" />
<rect x="118" y="0" width="1" height="716" fill="rgb(234, 234, 234)" fill-opacity="1.000000" />
<rect x="125" y="0" width="1" height="716" fill="rgb(234, 234, 234)" fill-opacity="1.000000" />
<rect x="132" y="0" width="1" height="716" fill="rgb(234, 234, 234)" fill-opacity="1.000000" />
<rect x="139" y="0" width="1" height="716" fill="rgb(234, 234, 234)" fill-opacity="1.000000" />
<rect x="146" y="0" width="1" height="716" fill="rgb(234, 234, 234)" fill-opacity="1.000000" />
<rect x="153" y="0" width="1" height="716" fill="rgb(234, 234, 234)" fill-opacity="1.000000" />
<rect x="160" y="0" width="1" height="716" fill="rgb(234, 234, 234)" fill-opacity="1.000000" />
<rect x="167" y="0" width="1" height="716" fill="rgb(234, 234, 234)" fill-opacity="1.000000" />
<rect x="174" y="0" width="1" height="716" fill="rgb(234, 234, 234)" fill-opacity="1.000000" />
<rect x="181" y="0" width="1" height="716" fill="rgb(234, 234, 234)" fill-opacity="1.000000" />
<rect x="188" y="0" width="1" height="716" fill="rgb(234, 234, 234)" fill-opacity="1.000000" />
<rect x="195" y="0" width="1" height="716" fill="rgb(234, 234, 234)" fill-opacity="1.000000" />
<rect x="202" y="0" width="1" height="716" fill="rgb(234, 234, 234)" fill-opacity="1.000000" />
<rect x="209" y="0" width="1" height="716" fill="rgb(234, 234, 234)" fill-opacity="1.000000" />
<rect x="216" y="0" width="1" height="716" fill="rgb(234, 234, 234)" fill-opacity="1.000000" />
<rect x="223" y="0" width="1" height="716" fill="rgb(234, 234, 234)" fill-opacity="1.000000" />
<rect x="230" y="0" width="1" height="716" fill="rgb(234, 234, 234)" fill-opacity="1.000000" />
<rect x="237" y="0" width="1" height="716" fill="rgb(234, 234, 234)" fill-opacity="1.000000" />
<rect x="244" y="0" width="1" height="716" fill="rgb(234, 234, 234)" fill-opacity="1.000000" />
<rect x="251" y="0" width="1" height="716" fill="rgb(234, 234, 234)" fill-opacity="1.000000" />
<rect x="258" y="0" width="1" height="716" fill="rgb(234, 234, 234)" fill-opacity="1.000000" />
<rect x="265" y="0" width="1" height="716" fill="rgb(234, 234, 234)" fill-opacity="1.000000" />
<rect x="272" y="0" width="1" height="716" fill="rgb(234, 234, 234)" fill-opacity="1.000000" />
<rect x="279" y="0" width="1" height="716" fill="rgb(234, 234, 234)" fill-opacity="1.000000" />
<rect x="286" y="0" width="1" height="716" fill="rgb(234, 234, 234)" fill-opacity="1.000000" />
<rect x="293" y="0" width="1" height="716" fill="rgb(234, 234, 234)" fill-opacity="1.000000" />
<rect x="300" y="0" width="1" height="716" fill="rgb(234, 234, 234)" fill-opacity="1.000000" />
<rect x="307" y="0" width="1" height="716" fill="rgb(234, 234, 234)" fill-opacity="1.000000" />
<rect x="314" y="0" width="1" height="716" fill="rgb(234, 234, 234)" fill-opacity="1.000000" />
<rect x="321" y="0" width="1" height="716" fill="rgb(234, 234, 234)" fill-opacity="1.000000" />
<rect x="328" y="0" width="1" height="716" fill="rgb(234, 234, 234)" fill-opacity="1.000000" />
<rect x="335" y="0" width="1" height="716" fill="rgb(234, 234, 234)" fill-opacity="1.000000" />
<rect x="342" y="0" width="1" height="716" fill="rgb(234, 234, 234)" fill-opacity="1.000000" />
<rect x="349" y="0" width="1" height="716" fill="rgb(234, 234, 234)" fill-opacity="1.000000" />
<rect x="356" y="0" width="1" height="716" fill="rgb(234, 234, 234)" fill-opacity="1.000000" />
<rect x="363" y="0" width="1" height="716" fill="rgb(234, 234, 234)" fill-opacity="1.000000" />
<rect x="370" y="0" width="1" height="716" fill="rgb(234, 234, 234)" fill-opacity="1.000000" />
<rect x="377" y="0" width="1" height="716" fill="rgb(234, 234, 234)" fill-opacity="1.000000" />
<rect x="384" y="0" width="1" height="716" fill="rgb(234, 234, 234)" fill-opacity="1.000000" />
<rect x="391" y="0" width="1" height="716" fill="rgb(234, 234, 234)" fill-opacity="1.000000" />
<rect x="398" y="0" width="1" height="716" fill="rgb(234, 234, 234)" fill-opacity="1.000000" />
<rect x="405" y="0" width="1" height="716" fill="rgb(234, 234, 234)" fill-opacity="1.000000" />
<rect x="412" y="0" width="1" height="716" fill="rgb(234, 234, 234)" fill-opacity="1.000000" />
<rect x="419" y="0" width="1" height="716" fill="rgb(234, 234, 234)" fill-opacity="1.000000" />
<rect x="426" y="0" width="1" height="716" fill="rgb(234, 234, 234)" fill-opacity="1.000000" />
<rect x="433" y="0" width="1" height="716" fill="rgb(234, 234, 234)" fill-opacity="1.000000" />
<rect x="440" y="0" width="1" height="716" fill="rgb(234, 234, 234)" fill-opacity="1.000000" />
<rect x="447" y="0" width="1" height="716" fill="rgb(234, 234, 234)" fill-opacity="1.000000" />
<rect x="454" y="0" width="1" height="716" fill="rgb(234, 234, 234)" fill-opacity="1.000000" />
<rect x="461" y="0" width="1" height="716" fill="rgb(234, 234, 234)" fill-opacity="1.000000" />
<rect x="468" y="0" width="1" height="716" fill="rgb(234, 234, 234)" fill-opacity="1.000000" />
<rect x="475" y="0" width="1" height="716" fill="rgb(234, 234, 234)" fill-opacity="1.000000" />
<rect x="482" y="0" width="1" height="716" fill="rgb(234, 234, 234)" fill-opacity="1.000000" />
<rect x="489" y="0" width="1" height="716" fill="rgb(234, 234, 234)" fill-opacity="1.000000" />
<rect x="496" y="0" width="1" height="716" fill="rgb(234, 234, 234)" fill-opacity="1.000000" />
<rect x="503" y="0" width="1" height="716" fill="rgb(234, 234, 234)" fill-opacity="1.000000" />
<rect x="510" y="0" width="1" height="716" fill="rgb(234, 234, 234)" fill-opacity="1.000000" />
<rect x="517" y="0" width="1" height="716" fill="rgb(234, 234, 234)" fill-opacity="1.000000" />
<rect x="524" y="0" width="1" height="716" fill="rgb(234, 234, 234)" fill-opacity="1.000000" />
<rect x="531" y="0" width="1" height="716" fill="rgb(234, 234, 234)" fill-opacity="1.000000" />
<rect x="538" y="0" width="1" height="716" fill="rgb(234, 234, 234)" fill-opacity="1.000000" />
<rect x="545" y="0" width="1" height="716" fill="rgb(234, 234, 234)" fill-opacity="1.000000" />
<rect x="552" y="0" width="1" height="716" fill="rgb(234, 234, 234)" fill-opacity="1.000000" />
<rect x="559" y="0" width="1" height="716" fill="rgb(234, 234, 234)" fill-opacity="1.000000" />
<rect x="566" y="0" width="1" height="716" fill="rgb(234, 234, 234)" fill-opacity="1.000000" />
<rect x="573" y="0" width="1" height="716" fill="rgb(234, 234, 234)" fill-opacity="1.000000" />
<rect x="580" y="0" width="1" height="716" fill="rgb(234, 234, 234)" fill-opacity="1.000000" />
<rect x="587" y="0" width="1" height="716" fill="rgb(234, 234, 234)" fill-opacity="1.000000" />
<rect x="594" y="0" width="1" height="716" fill="rgb(234, 234, 234)" fill-opacity="1.000000" />
<rect x="601" y="0" width="1" height="716" fill="rgb(234, 234, 234)" fill-opacity="1.000000" />
<rect x="608" y="0" width="1" height="716" fill="rgb(234, 234, 234)" fill-opacity="1.000000" />
<rect x="615" y="0" width="1" height="716" fill="rgb(234, 234, 234)" fill-opacity="1.000000" />
<rect x="622" y="0" width="1" height="716" fill="rgb(234, 234, 234)" fill-opacity="1.000000" />
<rect x="-1" y="715" width="624" height="1" fill="rgb(234, 234, 234)" fill-opacity="1.000000" />
<rect x="-1" y="702" width="624" height="1" fill="rgb(234, 234, 234)" fill-opacity="1.000000" />
<rect x="-1" y="689" width="624" height="1" fill="rgb(234, 234, 234)" fill-opacity="1.000000" />
<rect x="-1" y="676" width="624" height="1" fill="rgb(234, 234, 234)" fill-opacity="1.000000" />
<rect x="-1" y="663" width="624" height="1" fill="rgb(234, 234, 234)" fill-opacity="1.000000" />
<rect x="-1" y="650" width="624" height="1" fill="rgb(234, 234, 234)" fill-opacity="1.000000" />
<rect x="-1" y="637" width="624" height="1" fill="rgb(234, 234, 234)" fill-opacity="1.000000" />
<rect x="-1" y="624" width="624" height="1" fill="rgb(234, 234, 234)" fill-opacity="1.000000" />
<rect x="-1" y="611" width="624" height="1" fill="rgb(234, 234, 234)" fill-opacity="1.000000" />
<rect x="-1" y="598" width="624" height="1" fill="rgb(234, 234, 234)" fill-opacity="1.000000" />
<rect x="-1" y="585" width="624" height="1" fill="rgb(234, 234, 234)" fill-opacity="1.000000" />
<rect x="-1" y="572" width="624" height="1" fill="rgb(234, 234, 234)" fill-opacity="1.000000" />
<rect x="-1" y="559" width="624" height="1" fill="rgb(234, 234, 234)" fill-opacity="1.000000" />
<rect x="-1" y="546" width="624" height="1" fill="rgb(234, 234, 234)" fill-opacity="1.000000" />
<rect x="-1" y="533" width="624" height="1" fill="rgb(234, 234, 234)" fill-opacity="1.000000" />
<rect x="-1" y="520" width="624" height="1" fill="rgb(234, 234, 234)" fill-opacity="1.000000" />
<rect x="-1" y="507" width="624" height="1" fill="rgb(234, 234, 234)" fill-opacity="1.000000" />
<rect x="-1" y="494" width="624" height="1" fill="rgb(234, 234, 234)" fill-opacity="1.000000" />
<rect x="-1" y="481" width="624" height="1" fill="rgb(234, 234, 234)" fill-opacity="1.000000" />
<rect x="-1" y="468" width="624" height="1" fill="rgb(234, 234, 234)" fill-opacity="1.000000" />
<rect x="-1" y="455" width="624" height="1" fill="rgb(234, 234, 234)" fill-opacity="1.000000" />
<rect x="-1" y="442" width="624" height="1" fill="rgb(234, 234, 234)" fill-opacity="1.000000" />
<rect x="-1" y="429" width="624" height="1" fill="rgb(234, 234, 234)" fill-opacity="1.000000" />
<rect x="-1" y="416" width="624" height="1" fill="rgb(234, 234, 234)" fill-opacity="1.000000" />
<rect x="-1" y="403" width="624" height="1" fill="rgb(234, 234, 234)" fill-opacity="1.000000" />
<rect x="-1" y="390" width="624" height="1" fill="rgb(234, 234, 234)" fill-opacity="1.000000" />
<rect x="-1" y="377" width="624" height="1" fill="rgb(234, 234, 234)" fill-opacity="1.000000" />
<rect x="-1" y="364" width="624" height="1" fill="rgb(234, 234, 234)" fill-opacity="1.000000" />
<rect x="-1" y="351" width="624" height="1" fill="rgb(234, 234, 234)" fill-opacity="1.000000" />
<rect x="-1" y="338" width="624" height="1" fill="rgb(234, 234, 234)" fill-opacity="1.000000" />
<rect x="-1" y="325" width="624" height="1" fill="rgb(234, 234, 234)" fill-opacity="1.000000" />
<rect x="-1" y="312" width="624" height="1" fill="rgb(234, 234, 234)" fill-opacity="1.000000" />
<rect x="-1" y="299" width="624" height="1" fill="rgb(234, 234, 234)" fill-opacity="1.000000" />
<rect x="-1" y="286" width="624" height="1" fill="rgb(234, 234, 234)" fill-opacity="1.000000" />
<rect x="-1" y="273" width="624" height="1" fill="rgb(234, 234, 234)" fill-opacity="1.000000" />
<rect x="-1" y="260" width="624" height="1" fill="rgb(234, 234, 234)" fill-opacity="1.000000" />
<rect x="-1" y="247" width="624" height="1" fill="rgb(234, 234, 234)" fill-opacity="1.000000" />
<rect x="-1" y="234" width="624" height="1" fill="rgb(234, 234, 234)" fill-opacity="1.000000" />
<rect x="-1" y="221" width="624" height="1" fill="rgb(234, 234, 234)" fill-opacity="1.000000" />
<rect x="-1" y="208" width="624" height="1" fill="rgb(234, 234, 234)" fill-opacity="1.000000" />
<rect x="-1" y="195" width="624" height="1" fill="rgb(234, 234, 234)" fill-opacity="1.000000" />
<rect x="-1" y="182" width="624" height="1" fill="rgb(234, 234, 234)" fill-opacity="1.000000" />
<rect x="-1" y="169" width="624" height="1" fill="rgb(234, 234, 234)" fill-opacity="1.000000" />
<rect x="-1" y="156" width="624" height="1" fill="rgb(234, 234, 234)" fill-opacity="1.000000" />
<rect x="-1" y="143" width="624" height="1" fill="rgb(234, 234, 234)" fill-opacity="1.000000" />
<rect x="-1" y="130" width="624" height="1" fill="rgb(234, 234, 234)" fill-opacity="1.000000" />
<rect x="-1" y="117" width="624" height="1" fill="rgb(234, 234, 234)" fill-opacity="1.000000" />
<rect x="-1" y="104" width="624" height="1" fill="rgb(234, 234, 234)" fill-opacity="1.000000" />
<rect x="-1" y="91" width="624" height="1" fill="rgb(234, 234, 234)" fill-opacity="1.000000" />
<rect x="-1" y="78" width="624" height="1" fill="rgb(234, 234, 234)" fill-opacity="1.000000" />
<rect x="-1" y="65" width="624" height="1" fill="rgb(234, 234, 234)" fill-opacity="1.000000" />
<rect x="-1" y="52" width="624" height="1" fill="rgb(234, 234, 234)" fill-opacity="1.000000" />
<rect x="-1" y="39" width="624" height="1" fill="rgb(234, 234, 234)" fill-opacity="1.000000" />
<rect x="-1" y="26" width="624" height="1" fill="rgb(234, 234, 234)" fill-opacity="1.000000" />
<rect x="-1" y="13" width="624" height="1" fill="rgb(234, 234, 234)" fill-opacity="1.000000" />
<rect x="-1" y="0" width="624" height="1" fill="rgb(234, 234, 234)" fill-opacity="1.000000" />
</g>
<g id="Characters">
<path d="M 2.449219 13.319336 L 2.449219 5.950195 L 6.729980 5.950195 L 6.729980 7.797852 L 4.167969 7.797852 L 4.167969 13.319336 Z " fill="rgb(0, 0, 0)" fill-opacity="1.000000" />
<path d="M 2.449219 26.319336 L 2.449219 12.300781 L 4.167969 12.300781 L 4.167969 26.319336 Z " fill="rgb(0, 0, 0)" fill-opacity="1.000000" />
<path d="M 2.449219 39.319336 L 2.449219 25.300781 L 4.167969 25.300781 L 4.167969 39.319336 Z " fill="rgb(0, 0, 0)" fill-opacity="1.000000" />
<path d="M 2.449219 52.319336 L 2.449219 38.300781 L 4.167969 38.300781 L 4.167969 52.319336 Z " fill="rgb(0, 0, 0)" fill-opacity="1.000000" />
<path d="M 2.449219 65.319336 L 2.449219 51.300781 L 4.167969 51.300781 L 4.167969 65.319336 Z " fill="rgb(0, 0, 0)" fill-opacity="1.000000" />
<path d="M 2.449219 78.319336 L 2.449219 64.300781 L 4.167969 64.300781 L 4.167969 78.319336 Z " fill="rgb(0, 0, 0)" fill-opacity="1.000000" />
<path d="M 2.449219 91.319336 L 2.449219 77.300781 L 4.167969 77.300781 L 4.167969 91.319336 Z " fill="rgb(0, 0, 0)" fill-opacity="1.000000" />
<path d="M 2.449219 104.319336 L 2.449219 90.300781 L 4.167969 90.300781 L 4.167969 104.319336 Z " fill="rgb(0, 0, 0)" fill-opacity="1.000000" />
<path d="M 2.449219 117.319336 L 2.449219 103.300781 L 4.167969 103.300781 L 4.167969 117.319336 Z " fill="rgb(0, 0, 0)" fill-opacity="1.000000" />
<path d="M 2.449219 130.319336 L 2.449219 116.300781 L 4.167969 116.300781 L 4.167969 130.319336 Z " fill="rgb(0, 0, 0)" fill-opacity="1.000000" />
<path d="M 2.449219 143.319336 L 2.449219 129.300781 L 4.167969 129.300781 L 4.167969 143.319336 Z " fill="rgb(0, 0, 0)" fill-opacity="1.000000" />
<path d="M 2.449219 156.319336 L 2.449219 142.300781 L 4.167969 142.300781 L 4.167969 156.319336 Z " fill="rgb(0, 0, 0)" fill-opacity="1.000000" />
<path d="M 2.449219 169.319336 L 2.449219 155.300781 L 4.167969 155.300781 L 4.167969 169.319336 Z " fill="rgb(0, 0, 0)" fill-opacity="1.000000" />
<path d="M 2.449219 182.319336 L 2.449219 168.300781 L 4.167969 168.300781 L 4.167969 182.319336 Z " fill="rgb(0, 0, 0)" fill-opacity="1.000000" />
<path d="M 2.449219 195.319336 L 2.449219 181.300781 L 4.167969 181.300781 L 4.167969 195.319336 Z " fill="rgb(0, 0, 0)" fill-opacity="1.000000" />
<path d="M 2.449219 208.319336 L 2.449219 194.300781 L 4.167969 194.300781 L 4.167969 208.319336 Z " fill="rgb(0, 0, 0)" fill-opacity="1.000000" />
<path d="M 2.449219 221.319336 L 2.449219 207.300781 L 4.167969 207.300781 L 4.167969 221.319336 Z " fill="rgb(0, 0, 0)" fill-opacity="1.000000" />
<path d="M 2.449219 234.319336 L 2.449219 220.300781 L 4.167969 220.300781 L 4.167969 234.319336 Z " fill="rgb(0, 0, 0)" fill-opacity="1.000000" />
<path d="M 2.449219 247.319336 L 2.449219 233.300781 L 4.167969 233.300781 L 4.167969 247.319336 Z " fill="rgb(0, 0, 0)" fill-opacity="1.000000" />
<path d="M 2.449219 260.319336 L 2.449219 246.300781 L 4.167969 246.300781 L 4.167969 260.319336 Z " fill="rgb(0, 0, 0)" fill-opacity="1.000000" />
<path d="M 2.449219 273.319336 L 2.449219 259.300781 L 4.167969 259.300781 L 4.167969 273.319336 Z " fill="rgb(0, 0, 0)" fill-opacity="1.000000" />
<path d="M 2.449219 286.319336 L 2.449219 272.300781 L 4.167969 272.300781 L 4.167969 286.319336 Z " fill="rgb(0, 0, 0)" fill-opacity="1.000000" />
<path d="M 2.449219 299.319336 L 2.449219 285.300781 L 4.167969 285.300781 L 4.167969 299.319336 Z " fill="rgb(0, 0, 0)" fill-opacity="1.000000" />
<path d="M 2.449219 312.319336 L 2.449219 298.300781 L 4.167969 298.300781 L 4.167969 312.319336 Z " fill="rgb(0, 0, 0)" fill-opacity="1.000000" />
<path d="M 2.449219 325.319336 L 2.449219 311.300781 L 4.167969 311.300781 L 4.167969 325.319336 Z " fill="rgb(0, 0, 0)" fill-opacity="1.000000" />
<path d="M 2.449219 338.319336 L 2.449219 324.300781 L 4.167969 324.300781 L 4.167969 338.319336 Z " fill="rgb(0, 0, 0)" fill-opacity="1.000000" />
<path d="M 2.449219 351.319336 L 2.449219 337.300781 L 4.167969 337.300781 L 4.167969 351.319336 Z " fill="rgb(0, 0, 0)" fill-opacity="1.000000" />
<path d="M 2.449219 364.319336 L 2.449219 350.300781 L 4.167969 350.300781 L 4.167969 364.319336 Z " fill="rgb(0, 0, 0)" fill-opacity="1.000000" />
<path d="M 2.449219 377.319336 L 2.449219 363.300781 L 4.167969 363.300781 L 4.167969 377.319336 Z " fill="rgb(0, 0, 0)" fill-opacity="1.000000" />
<path d="M 2.449219 390.319336 L 2.449219 376.300781 L 4.167969 376.300781 L 4.167969 390.319336 Z " fill="rgb(0, 0, 0)" fill-opacity="1.000000" />
<path d="M 2.449219 403.319336 L 2.449219 389.300781 L 4.167969 389.300781 L 4.167969 403.319336 Z " fill="rgb(0, 0, 0)" fill-opacity="1.000000" />
<path d="M 2.449219 416.319336 L 2.449219 402.300781 L 4.167969 402.300781 L 4.167969 416.319336 Z " fill="rgb(0, 0, 0)" fill-opacity="1.000000" />
<path d="M 2.449219 429.319336 L 2.449219 415.300781 L 4.167969 415.300781 L 4.167969 429.319336 Z " fill="rgb(0, 0, 0)" fill-opacity="1.000000" />
<path d="M 2.449219 442.319336 L 2.449219 428.300781 L 4.167969 428.300781 L 4.167969 442.319336 Z " fill="rgb(0, 0, 0)" fill-opacity="1.000000" />
<path d="M 2.449219 455.319336 L 2.449219 441.300781 L 4.167969 441.300781 L 4.167969 455.319336 Z " fill="rgb(0, 0, 0)" fill-opacity="1.000000" />
<path d="M 2.449219 468.319336 L 2.449219 454.300781 L 4.167969 454.300781 L 4.167969 468.319336 Z " fill="rgb(0, 0, 0)" fill-opacity="1.000000" />
<path d="M 2.449219 481.319336 L 2.449219 467.300781 L 4.167969 467.300781 L 4.167969 481.319336 Z " fill="rgb(0, 0, 0)" fill-opacity="1.000000" />
<path d="M 2.449219 494.319336 L 2.449219 480.300781 L 4.167969 480.300781 L 4.167969 494.319336 Z " fill="rgb(0, 0, 0)" fill-opacity="1.000000" />
<path d="M 2.449219 507.319336 L 2.449219 493.300781 L 4.167969 493.300781 L 4.167969 507.319336 Z " fill="rgb(0, 0, 0)" fill-opacity="1.000000" />
<path d="M 2.449219 520.319336 L 2.449219 506.300781 L 4.167969 506.300781 L 4.167969 520.319336 Z " fill="rgb(0, 0, 0)" fill-opacity="1.000000" />
<path d="M 2.449219 533.319336 L 2.449219 519.300781 L 4.167969 519.300781 L 4.167969 533.319336 Z " fill="rgb(0, 0, 0)" fill-opacity="1.000000" />
<path d="M 2.449219 546.319336 L 2.449219 532.300781 L 4.167969 532.300781 L 4.167969 546.319336 Z " fill="rgb(0, 0, 0)" fill-opacity="1.000000" />
<path d="M 2.449219 559.319336 L 2.449219 545.300781 L 4.167969 545.300781 L 4.167969 559.319336 Z " fill="rgb(0, 0, 0)" fill-opacity="1.000000" />
<path d="M 2.449219 572.319336 L 2.449219 558.300781 L 4.167969 558.300781 L 4.167969 572.319336 Z " fill="rgb(0, 0, 0)" fill-opacity="1.000000" />
<path d="M 2.449219 585.319336 L 2.449219 571.300781 L 4.167969 571.300781 L 4.167969 585.319336 Z " fill="rgb(0, 0, 0)" fill-opacity="1.000000" />
<path d="M 2.449219 598.319336 L 2.449219 584.300781 L 4.167969 584.300781 L 4.167969 598.319336 Z " fill="rgb(0, 0, 0)" fill-opacity="1.000000" />
<path d="M 2.449219 611.319336 L 2.449219 597.300781 L 4.167969 597.300781 L 4.167969 611.319336 Z " fill="rgb(0, 0, 0)" fill-opacity="1.000000" />
<path d="M 2.449219 624.319336 L 2.449219 610.300781 L 4.167969 610.300781 L 4.167969 624.319336 Z " fill="rgb(0, 0, 0)" fill-opacity="1.000000" />
<path d="M 2.449219 637.319336 L 2.449219 623.300781 L 4.167969 623.300781 L 4.167969 637.319336 Z " fill="rgb(0, 0, 0)" fill-opacity="1.000000" />
<path d="M 2.449219 650.319336 L 2.449219 636.300781 L 4.167969 636.300781 L 4.167969 650.319336 Z " fill="rgb(0, 0, 0)" fill-opacity="1.000000" />
<path d="M 2.449219 663.319336 L 2.449219 649.300781 L 4.167969 649.300781 L 4.167969 663.319336 Z " fill="rgb(0, 0, 0)" fill-opacity="1.000000" />
<path d="M 2.449219 676.319336 L 2.449219 662.300781 L 4.167969 662.300781 L 4.167969 676.319336 Z " fill="rgb(0, 0, 0)" fill-opacity="1.000000" />
<path d="M 2.449219 689.319336 L 2.449219 675.300781 L 4.167969 675.300781 L 4.167969 689.319336 Z " fill="rgb(0, 0, 0)" fill-opacity="1.000000" />
<path d="M 2.449219 702.319336 L 2.449219 688.300781 L 4.167969 688.300781 L 4.167969 702.319336 Z " fill="rgb(0, 0, 0)" fill-opacity="1.000000" />
<path d="M 2.449219 709.797852 L 2.449219 701.300781 L 4.167969 701.300781 L 4.167969 707.950195 L 6.729980 707.950195 L 6.729980 709.797852 Z " fill="rgb(0, 0, 0)" fill-opacity="1.000000" />
<path d="M 6.892578 709.797852 L 6.892578 707.950195 L 13.729980 707.950195 L 13.729980 709.797852 Z " fill="rgb(0, 0, 0)" fill-opacity="1.000000" />
<path d="M 13.892578 709.797852 L 13.892578 707.950195 L 20.729980 707.950195 L 20.729980 709.797852 Z " fill="rgb(0, 0, 0)" fill-opacity="1.000000" />
<path d="M 20.892578 709.797852 L 20.892578 707.950195 L 27.729980 707.950195 L 27.729980 709.797852 Z " fill="rgb(0, 0, 0)" fill-opacity="1.000000" />
<path d="M 27.892578 709.797852 L 27.892578 707.950195 L 34.729980 707.950195 L 34.729980 709.797852 Z " fill="rgb(0, 0, 0)" fill-opacity="1.000000" />
<path d="M 34.892578 709.797852 L 34.892578 707.950195 L 41.729980 707.950195 L 41.729980 709.797852 Z " fill="rgb(0, 0, 0)" fill-opacity="1.000000" />
<path d="M 41.892578 709.797852 L 41.892578 707.950195 L 48.729980 707.950195 L 48.729980 709.797852 Z " fill="rgb(0, 0, 0)" fill-opacity="1.000000" />
<path d="M 48.892578 709.797852 L 48.892578 707.950195 L 55.729980 707.950195 L 55.729980 709.797852 Z " fill="rgb(0, 0, 0)" fill-opacity="1.000000" />
<path d="M 55.892578 709.797852 L 55.892578 707.950195 L 62.729980 707.950195 L 62.729980 709.797852 Z " fill="rgb(0, 0, 0)" fill-opacity="1.000000" />
<path d="M 62.892578 709.797852 L 62.892578 707.950195 L 69.729980 707.950195 L 69.729980 709.797852 Z " fill="rgb(0, 0, 0)" fill-opacity="1.000000" />
<path d="M 69.892578 709.797852 L 69.892578 707.950195 L 76.729980 707.950195 L 76.729980 709.797852 Z " fill="rgb(0, 0, 0)" fill-opacity="1.000000" />
<path d="M 76.892578 709.797852 L 76.892578 707.950195 L 83.729980 707.950195 L 83.729980 709.797852 Z " fill="rgb(0, 0, 0)" fill-opacity="1.000000" />
<path d="M 83.892578 709.797852 L 83.892578 707.950195 L 90.729980 707.950195 L 90.729980 709.797852 Z " fill="rgb(0, 0, 0)" fill-opacity="1.000000" />
<path d="M 90.892578 709.797852 L 90.892578 707.950195 L 97.729980 707.950195 L 97.729980 709.797852 Z " fill="rgb(0, 0, 0)" fill-opacity="1.000000" />
<path d="M 97.892578 709.797852 L 97.892578 707.950195 L 104.729980 707.950195 L 104.729980 709.797852 Z " fill="rgb(0, 0, 0)" fill-opacity="1.000000" />
<path d="M 104.892578 709.797852 L 104.892578 707.950195 L 111.729980 707.950195 L 111.729980 709.797852 Z " fill="rgb(0, 0, 0)" fill-opacity="1.000000" />
<path d="M 111.892578 709.797852 L 111.892578 707.950195 L 118.729980 707.950195 L 118.729980 709.797852 Z " fill="rgb(0, 0, 0)" fill-opacity="1.000000" />
<path d="M 118.892578 709.797852 L 118.892578 707.950195 L 125.729980 707.950195 L 125.729980 709.797852 Z " fill="rgb(0, 0, 0)" fill-opacity="1.000000" />
<path d="M 125.892578 709.797852 L 125.892578 707.950195 L 132.729980 707.950195 L 132.729980 709.797852 Z " fill="rgb(0, 0, 0)" fill-opacity="1.000000" />
<path d="M 132.892578 709.797852 L 132.892578 707.950195 L 139.729980 707.950195 L 139.729980 709.797852 Z " fill="rgb(0, 0, 0)" fill-opacity="1.000000" />
<path d="M 139.892578 709.797852 L 139.892578 707.950195 L 146.729980 707.950195 L 146.729980 709.797852 Z " fill="rgb(0, 0, 0)" fill-opacity="1.000000" />
<path d="M 146.892578 709.797852 L 146.892578 707.950195 L 153.729980 707.950195 L 153.729980 709.797852 Z " fill="rgb(0, 0, 0)" fill-opacity="1.000000" />
<path d="M 153.892578 709.797852 L 153.892578 707.950195 L 160.729980 707.950195 L 160.729980 709.797852 Z " fill="rgb(0, 0, 0)" fill-opacity="1.000000" />
<path d="M 160.892578 709.797852 L 160.892578 707.950195 L 167.729980 707.950195 L 167.729980 709.797852 Z " fill="rgb(0, 0, 0)" fill-opacity="1.000000" />
<path d="M 167.892578 709.797852 L 167.892578 707.950195 L 174.729980 707.950195 L 174.729980 709.797852 Z " fill="rgb(0, 0, 0)" fill-opacity="1.000000" />
<path d="M 174.892578 709.797852 L 174.892578 707.950195 L 181.729980 707.950195 L 181.729980 709.797852 Z " fill="rgb(0, 0, 0)" fill-opacity="1.000000" />
<path d="M 181.892578 709.797852 L 181.892578 707.950195 L 188.729980 707.950195 L 188.729980 709.797852 Z " fill="rgb(0, 0, 0)" fill-opacity="1.000000" />
<path d="M 188.892578 709.797852 L 188.892578 707.950195 L 195.729980 707.950195 L 195.729980 709.797852 Z " fill="rgb(0, 0, 0)" fill-opacity="1.000000" />
<path d="M 195.892578 709.797852 L 195.892578 707.950195 L 202.729980 707.950195 L 202.729980 709.797852 Z " fill="rgb(0, 0, 0)" fill-opacity="1.000000" />
<path d="M 202.892578 709.797852 L 202.892578 707.950195 L 209.729980 707.950195 L 209.729980 709.797852 Z " fill="rgb(0, 0, 0)" fill-opacity="1.000000" />
<path d="M 209.892578 709.797852 L 209.892578 707.950195 L 216.729980 707.950195 L 216.729980 709.797852 Z " fill="rgb(0, 0, 0)" fill-opacity="1.000000" />
<path d="M 216.892578 709.797852 L 216.892578 707.950195 L 223.729980 707.950195 L 223.729980 709.797852 Z " fill="rgb(0, 0, 0)" fill-opacity="1.000000" />
<path d="M 223.892578 709.797852 L 223.892578 707.950195 L 230.729980 707.950195 L 230.729980 709.797852 Z " fill="rgb(0, 0, 0)" fill-opacity="1.000000" />
<path d="M 230.892578 709.797852 L 230.892578 707.950195 L 237.729980 707.950195 L 237.729980 709.797852 Z " fill="rgb(0, 0, 0)" fill-opacity="1.000000" />
<path d="M 237.892578 709.797852 L 237.892578 707.950195 L 244.729980 707.950195 L 244.729980 709.797852 Z " fill="rgb(0, 0, 0)" fill-opacity="1.000000" />
<path d="M 244.892578 709.797852 L 244.892578 707.950195 L 251.729980 707.950195 L 251.729980 709.797852 Z " fill="rgb(0, 0, 0)" fill-opacity="1.000000" />
<path d="M 251.892578 709.797852 L 251.892578 707.950195 L 258.729980 707.950195 L 258.729980 709.797852 Z " fill="rgb(0, 0, 0)" fill-opacity="1.000000" />
<path d="M 258.892578 709.797852 L 258.892578 707.950195 L 265.729980 707.950195 L 265.729980 709.797852 Z " fill="rgb(0, 0, 0)" fill-opacity="1.000000" />
<path d="M 265.892578 709.797852 L 265.892578 707.950195 L 272.729980 707.950195 L 272.729980 709.797852 Z " fill="rgb(0, 0, 0)" fill-opacity="1.000000" />
<path d="M 272.892578 709.797852 L 272.892578 707.950195 L 279.729980 707.950195 L 279.729980 709.797852 Z " fill="rgb(0, 0, 0)" fill-opacity="1.000000" />
<path d="M 279.892578 709.797852 L 279.892578 707.950195 L 286.729980 707.950195 L 286.729980 709.797852 Z " fill="rgb(0, 0, 0)" fill-opacity="1.000000" />
<path d="M 286.892578 709.797852 L 286.892578 707.950195 L 293.729980 707.950195 L 293.729980 709.797852 Z " fill="rgb(0, 0, 0)" fill-opacity="1.000000" />
<path d="M 293.892578 709.797852 L 293.892578 707.950195 L 300.729980 707.950195 L 300.729980 709.797852 Z " fill="rgb(0, 0, 0)" fill-opacity="1.000000" />
<path d="M 300.892578 709.797852 L 300.892578 707.950195 L 307.729980 707.950195 L 307.729980 709.797852 Z " fill="rgb(0, 0, 0)" fill-opacity="1.000000" />
<path d="M 307.892578 709.797852 L 307.892578 707.950195 L 314.729980 707.950195 L 314.729980 709.797852 Z " fill="rgb(0, 0, 0)" fill-opacity="1.000000" />
<path d="M 314.892578 709.797852 L 314.892578 707.950195 L 321.729980 707.950195 L 321.729980 709.797852 Z " fill="rgb(0, 0, 0)" fill-opacity="1.000000" />
<path d="M 321.892578 709.797852 L 321.892578 707.950195 L 328.729980 707.950195 L 328.729980 709.797852 Z " fill="rgb(0, 0, 0)" fill-opacity="1.000000" />
<path d="M 328.892578 709.797852 L 328.892578 707.950195 L 335.729980 707.950195 L 335.729980 709.797852 Z " fill="rgb(0, 0, 0)" fill-opacity="1.000000" />
<path d="M 335.892578 709.797852 L 335.892578 707.950195 L 342.729980 707.950195 L 342.729980 709.797852 Z " fill="rgb(0, 0, 0)" fill-opacity="1.000000" />
<path d="M 342.892578 709.797852 L 342.892578 707.950195 L 349.729980 707.950195 L 349.729980 709.797852 Z " fill="rgb(0, 0, 0)" fill-opacity="1.000000" />
<path d="M 349.892578 709.797852 L 349.892578 707.950195 L 356.729980 707.950195 L 356.729980 709.797852 Z " fill="rgb(0, 0, 0)" fill-opacity="1.000000" />
<path d="M 356.892578 709.797852 L 356.892578 707.950195 L 363.729980 707.950195 L 363.729980 709.797852 Z " fill="rgb(0, 0, 0)" fill-opacity="1.000000" />
<path d="M 363.892578 709.797852 L 363.892578 707.950195 L 370.729980 707.950195 L 370.729980 709.797852 Z " fill="rgb(0, 0, 0)" fill-opacity="1.000000" />
<path d="M 370.892578 709.797852 L 370.892578 707.950195 L 377.729980 707.950195 L 377.729980 709.797852 Z " fill="rgb(0, 0, 0)" fill-opacity="1.000000" />
<path d="M 377.892578 709.797852 L 377.892578 707.950195 L 384.729980 707.950195 L 384.729980 709.797852 Z " fill="rgb(0, 0, 0)" fill-opacity="1.000000" />
<path d="M 384.892578 709.797852 L 384.892578 707.950195 L 391.729980 707.950195 L 391.729980 709.797852 Z " fill="rgb(0, 0, 0)" fill-opacity="1.000000" />
<path d="M 391.892578 709.797852 L 391.892578 707.950195 L 398.729980 707.950195 L 398.729980 709.797852 Z " fill="rgb(0, 0, 0)" fill-opacity="1.000000" />
<path d="M 398.892578 709.797852 L 398.892578 707.950195 L 405.729980 707.950195 L 405.729980 709.797852 Z " fill="rgb(0, 0, 0)" fill-opacity="1.000000" />
<path d="M 405.892578 709.797852 L 405.892578 707.950195 L 412.729980 707.950195 L 412.729980 709.797852 Z " fill="rgb(0, 0, 0)" fill-opacity="1.000000" />
<path d="M 412.892578 709.797852 L 412.892578 707.950195 L 419.729980 707.950195 L 419.729980 709.797852 Z " fill="rgb(0, 0, 0)" fill-opacity="1.000000" />
<path d="M 419.892578 709.797852 L 419.892578 707.950195 L 426.729980 707.950195 L 426.729980 709.797852 Z " fill="rgb(0, 0, 0)" fill-opacity="1.000000" />
<path d="M 426.892578 709.797852 L 426.892578 707.950195 L 433.729980 707.950195 L 433.729980 709.797852 Z " fill="rgb(0, 0, 0)" fill-opacity="1.000000" />
<path d="M 433.892578 709.797852 L 433.892578 707.950195 L 440.729980 707.950195 L 440.729980 709.797852 Z " fill="rgb(0, 0, 0)" fill-opacity="1.000000" />
<path d="M 440.892578 709.797852 L 440.892578 707.950195 L 447.729980 707.950195 L 447.729980 709.797852 Z " fill="rgb(0, 0, 0)" fill-opacity="1.000000" />
<path d="M 447.892578 709.797852 L 447.892578 707.950195 L 454.729980 707.950195 L 454.729980 709.797852 Z " fill="rgb(0, 0, 0)" fill-opacity="1.000000" />
<path d="M 454.892578 709.797852 L 454.892578 707.950195 L 461.729980 707.950195 L 461.729980 709.797852 Z " fill="rgb(0, 0, 0)" fill-opacity="1.000000" />
<path d="M 461.892578 709.797852 L 461.892578 707.950195 L 468.729980 707.950195 L 468.729980 709.797852 Z " fill="rgb(0, 0, 0)" fill-opacity="1.000000" />
<path d="M 468.892578 709.797852 L 468.892578 707.950195 L 475.729980 707.950195 L 475.729980 709.797852 Z " fill="rgb(0, 0, 0)" fill-opacity="1.000000" />
<path d="M 475.892578 709.797852 L 475.892578 707.950195 L 482.729980 707.950195 L 482.729980 709.797852 Z " fill="rgb(0, 0, 0)" fill-opacity="1.000000" />
<path d="M 482.892578 709.797852 L 482.892578 707.950195 L 489.729980 707.950195 L 489.729980 709.797852 Z " fill="rgb(0, 0, 0)" fill-opacity="1.000000" />
<path d="M 489.892578 709.797852 L 489.892578 707.950195 L 496.729980 707.950195 L 496.729980 709.797852 Z " fill="rgb(0, 0, 0)" fill-opacity="1.000000" />
<path d="M 496.892578 709.797852 L 496.892578 707.950195 L 503.729980 707.950195 L 503.729980 709.797852 Z " fill="rgb(0, 0, 0)" fill-opacity="1.000000" />
<path d="M 503.892578 709.797852 L 503.892578 707.950195 L 510.729980 707.950195 L 510.729980 709.797852 Z " fill="rgb(0, 0, 0)" fill-opacity="1.000000" />
<path d="M 510.892578 709.797852 L 510.892578 707.950195 L 517.729980 707.950195 L 517.729980 709.797852 Z " fill="rgb(0, 0, 0)" fill-opacity="1.000000" />
<path d="M 517.892578 709.797852 L 517.892578 707.950195 L 524.729980 707.950195 L 524.729980 709.797852 Z " fill="rgb(0, 0, 0)" fill-opacity="1.000000" />
<path d="M 524.892578 709.797852 L 524.892578 707.950195 L 531.729980 707.950195 L 531.729980 709.797852 Z " fill="rgb(0, 0, 0)" fill-opacity="1.000000" />
<path d="M 531.892578 709.797852 L 531.892578 707.950195 L 538.729980 707.950195 L 538.729980 709.797852 Z " fill="rgb(0, 0, 0)" fill-opacity="1.000000" />
<path d="M 538.892578 709.797852 L 538.892578 707.950195 L 545.729980 707.950195 L 545.729980 709.797852 Z " fill="rgb(0, 0, 0)" fill-opacity="1.000000" />
<path d="M 545.892578 709.797852 L 545.892578 707.950195 L 552.729980 707.950195 L 552.729980 709.797852 Z " fill="rgb(0, 0, 0)" fill-opacity="1.000000" />
<path d="M 552.892578 709.797852 L 552.892578 707.950195 L 559.729980 707.950195 L 559.729980 709.797852 Z " fill="rgb(0, 0, 0)" fill-opacity="1.000000" />
<path d="M 559.892578 709.797852 L 559.892578 707.950195 L 566.729980 707.950195 L 566.729980 709.797852 Z " fill="rgb(0, 0, 0)" fill-opacity="1.000000" />
<path d="M 566.892578 709.797852 L 566.892578 707.950195 L 573.729980 707.950195 L 573.729980 709.797852 Z " fill="rgb(0, 0, 0)" fill-opacity="1.000000" />
<path d="M 573.892578 709.797852 L 573.892578 707.950195 L 580.729980 707.950195 L 580.729980 709.797852 Z " fill="rgb(0, 0, 0)" fill-opacity="1.000000" />
<path d="M 580.892578 709.797852 L 580.892578 707.950195 L 587.729980 707.950195 L 587.729980 709.797852 Z " fill="rgb(0, 0, 0)" fill-opacity="1.000000" />
<path d="M 587.892578 709.797852 L 587.892578 707.950195 L 594.729980 707.950195 L 594.729980 709.797852 Z " fill="rgb(0, 0, 0)" fill-opacity="1.000000" />
<path d="M 594.892578 709.797852 L 594.892578 707.950195 L 601.729980 707.950195 L 601.729980 709.797852 Z " fill="rgb(0, 0, 0)" fill-opacity="1.000000" />
<path d="M 601.892578 709.797852 L 601.892578 707.950195 L 608.729980 707.950195 L 608.729980 709.797852 Z " fill="rgb(0, 0, 0)" fill-opacity="1.000000" />
<path d="M 608.892578 709.797852 L 608.892578 707.950195 L 615.729980 707.950195 L 615.729980 709.797852 Z " fill="rgb(0, 0, 0)" fill-opacity="1.000000" />
<path d="M 615.892578 709.797852 L 615.892578 707.950195 L 618.449219 707.950195 L 618.449219 701.300781 L 620.167969 701.300781 L 620.167969 709.797852 Z " fill="rgb(0, 0, 0)" fill-opacity="1.000000" />
<path d="M 618.449219 26.319336 L 618.449219 12.300781 L 620.167969 12.300781 L 620.167969 26.319336 Z " fill="rgb(0, 0, 0)" fill-opacity="1.000000" />
<path d="M 618.449219 39.319336 L 618.449219 25.300781 L 620.167969 25.300781 L 620.167969 39.319336 Z " fill="rgb(0, 0, 0)" fill-opacity="1.000000" />
<path d="M 618.449219 52.319336 L 618.449219 38.300781 L 620.167969 38.300781 L 620.167969 52.319336 Z " fill="rgb(0, 0, 0)" fill-opacity="1.000000" />
<path d="M 618.449219 65.319336 L 618.449219 51.300781 L 620.167969 51.300781 L 620.167969 65.319336 Z " fill="rgb(0, 0, 0)" fill-opacity="1.000000" />
<path d="M 618.449219 78.319336 L 618.449219 64.300781 L 620.167969 64.300781 L 620.167969 78.319336 Z " fill="rgb(0, 0, 0)" fill-opacity="1.000000" />
<path d="M 618.449219 91.319336 L 618.449219 77.300781 L 620.167969 77.300781 L 620.167969 91.319336 Z " fill="rgb(0, 0, 0)" fill-opacity="1.000000" />
<path d="M 618.449219 104.319336 L 618.449219 90.300781 L 620.167969 90.300781 L 620.167969 104.319336 Z " fill="rgb(0, 0, 0)" fill-opacity="1.000000" />
<path d="M 618.449219 117.319336 L 618.449219 103.300781 L 620.167969 103.300781 L 620.167969 117.319336 Z " fill="rgb(0, 0, 0)" fill-opacity="1.000000" />
<path d="M 618.449219 130.319336 L 618.449219 116.300781 L 620.167969 116.300781 L 620.167969 130.319336 Z " fill="rgb(0, 0, 0)" fill-opacity="1.000000" />
<path d="M 618.449219 143.319336 L 618.449219 129.300781 L 620.167969 129.300781 L 620.167969 143.319336 Z " fill="rgb(0, 0, 0)" fill-opacity="1.000000" />
<path d="M 618.449219 156.319336 L 618.449219 142.300781 L 620.167969 142.300781 L 620.167969 156.319336 Z " fill="rgb(0, 0, 0)" fill-opacity="1.000000" />
<path d="M 618.449219 169.319336 L 618.449219 155.300781 L 620.167969 155.300781 L 620.167969 169.319336 Z " fill="rgb(0, 0, 0)" fill-opacity="1.000000" />
<path d="M 618.449219 182.319336 L 618.449219 168.300781 L 620.167969 168.300781 L 620.167969 182.319336 Z " fill="rgb(0, 0, 0)" fill-opacity="1.000000" />
<path d="M 618.449219 195.319336 L 618.449219 181.300781 L 620.167969 181.300781 L 620.167969 195.319336 Z " fill="rgb(0, 0, 0)" fill-opacity="1.000000" />
<path d="M 618.449219 208.319336 L 618.449219 194.300781 L 620.167969 194.300781 L 620.167969 208.319336 Z " fill="rgb(0, 0, 0)" fill-opacity="1.000000" />
<path d="M 618.449219 221.319336 L 618.449219 207.300781 L 620.167969 207.300781 L 620.167969 221.319336 Z " fill="rgb(0, 0, 0)" fill-opacity="1.000000" />
<path d="M 618.449219 234.319336 L 618.449219 220.300781 L 620.167969 220.300781 L 620.167969 234.319336 Z " fill="rgb(0, 0, 0)" fill-opacity="1.000000" />
<path d="M 618.449219 247.319336 L 618.449219 233.300781 L 620.167969 233.300781 L 620.167969 247.319336 Z " fill="rgb(0, 0, 0)" fill-opacity="1.000000" />
<path d="M 618.449219 260.319336 L 618.449219 246.300781 L 620.167969 246.300781 L 620.167969 260.319336 Z " fill="rgb(0, 0, 0)" fill-opacity="1.000000" />
<path d="M 618.449219 273.319336 L 618.449219 259.300781 L 620.167969 259.300781 L 620.167969 273.319336 Z " fill="rgb(0, 0, 0)" fill-opacity="1.000000" />
<path d="M 618.449219 286.319336 L 618.449219 272.300781 L 620.167969 272.300781 L 620.167969 286.319336 Z " fill="rgb(0, 0, 0)" fill-opacity="1.000000" />
<path d="M 618.449219 299.319336 L 618.449219 285.300781 L 620.167969 285.300781 L 620.167969 299.319336 Z " fill="rgb(0, 0, 0)" fill-opacity="1.000000" />
<path d="M 618.449219 312.319336 L 618.449219 298.300781 L 620.167969 298.300781 L 620.167969 312.319336 Z " fill="rgb(0, 0, 0)" fill-opacity="1.000000" />
<path d="M 618.449219 325.319336 L 618.449219 311.300781 L 620.167969 311.300781 L 620.167969 325.319336 Z " fill="rgb(0, 0, 0)" fill-opacity="1.000000" />
<path d="M 618.449219 338.319336 L 618.449219 324.300781 L 620.167969 324.300781 L 620.167969 338.319336 Z " fill="rgb(0, 0, 0)" fill-opacity="1.000000" />
<path d="M 618.449219 351.319336 L 618.449219 337.300781 L 620.167969 337.300781 L 620.167969 351.319336 Z " fill="rgb(0, 0, 0)" fill-opacity="1.000000" />
<path d="M 618.449219 364.319336 L 618.449219 350.300781 L 620.167969 350.300781 L 620.167969 364.319336 Z " fill="rgb(0, 0, 0)" fill-opacity="1.000000" />
<path d="M 618.449219 377.319336 L 618.449219 363.300781 L 620.167969 363.300781 L 620.167969 377.319336 Z " fill="rgb(0, 0, 0)" fill-opacity="1.000000" />
<path d="M 618.449219 390.319336 L 618.449219 376.300781 L 620.167969 376.300781 L 620.167969 390.319336 Z " fill="rgb(0, 0, 0)" fill-opacity="1.000000" />
<path d="M 618.449219 403.319336 L 618.449219 389.300781 L 620.167969 389.300781 L 620.167969 403.319336 Z " fill="rgb(0, 0, 0)" fill-opacity="1.000000" />
<path d="M 618.449219 416.319336 L 618.449219 402.300781 L 620.167969 402.300781 L 620.167969 416.319336 Z " fill="rgb(0, 0, 0)" fill-opacity="1.000000" />
<path d="M 618.449219 429.319336 L 618.449219 415.300781 L 620.167969 415.300781 L 620.167969 429.319336 Z " fill="rgb(0, 0, 0)" fill-opacity="1.000000" />
<path d="M 618.449219 442.319336 L 618.449219 428.300781 L 620.167969 428.300781 L 620.167969 442.319336 Z " fill="rgb(0, 0, 0)" fill-opacity="1.000000" />
<path d="M 618.449219 455.319336 L 618.449219 441.300781 L 620.167969 441.300781 L 620.167969 455.319336 Z " fill="rgb(0, 0, 0)" fill-opacity="1.000000" />
<path d="M 618.449219 468.319336 L 618.449219 454.300781 L 620.167969 454.300781 L 620.167969 468.319336 Z " fill="rgb(0, 0, 0)" fill-opacity="1.000000" />
<path d="M 618.449219 481.319336 L 618.449219 467.300781 L 620.167969 467.300781 L 620.167969 481.319336 Z " fill="rgb(0, 0, 0)" fill-opacity="1.000000" />
<path d="M 618.449219 494.319336 L 618.449219 480.300781 L 620.167969 480.300781 L 620.167969 494.319336 Z " fill="rgb(0, 0, 0)" fill-opacity="1.000000" />
<path d="M 618.449219 507.319336 L 618.449219 493.300781 L 620.167969 493.300781 L 620.167969 507.319336 Z " fill="rgb(0, 0, 0)" fill-opacity="1.000000" />
<path d="M 618.449219 520.319336 L 618.449219 506.300781 L 620.167969 506.300781 L 620.167969 520.319336 Z " fill="rgb(0, 0, 0)" fill-opacity="1.000000" />
<path d="M 618.449219 533.319336 L 618.449219 519.300781 L 620.167969 519.300781 L 620.167969 533.319336 Z " fill="rgb(0, 0, 0)" fill-opacity="1.000000" />
<path d="M 618.449219 546.319336 L 618.449219 532.300781 L 620.167969 532.300781 L 620.167969 546.319336 Z " fill="rgb(0, 0, 0)" fill-opacity="1.000000" />
<path d="M 618.449219 559.319336 L 618.449219 545.300781 L 620.167969 545.300781 L 620.167969 559.319336 Z " fill="rgb(0, 0, 0)" fill-opacity="1.000000" />
<path d="M 618.449219 572.319336 L 618.449219 558.300781 L 620.167969 558.300781 L 620.167969 572.319336 Z " fill="rgb(0, 0, 0)" fill-opacity="1.000000" />
<path d="M 618.449219 585.319336 L 618.449219 571.300781 L 620.167969 571.300781 L 620.167969 585.319336 Z " fill="rgb(0, 0, 0)" fill-opacity="1.000000" />
<path d="M 618.449219 598.319336 L 618.449219 584.300781 L 620.167969 584.300781 L 620.167969 598.319336 Z " fill="rgb(0, 0, 0)" fill-opacity="1.000000" />
<path d="M 618.449219 611.319336 L 618.449219 597.300781 L 620.167969 597.300781 L 620.167969 611.319336 Z " fill="rgb(0, 0, 0)" fill-opacity="1.000000" />
<path d="M 618.449219 624.319336 L 618.449219 610.300781 L 620.167969 610.300781 L 620.167969 624.319336 Z " fill="rgb(0, 0, 0)" fill-opacity="1.000000" />
<path d="M 618.449219 637.319336 L 618.449219 623.300781 L 620.167969 623.300781 L 620.167969 637.319336 Z " fill="rgb(0, 0, 0)" fill-opacity="1.000000" />
<path d="M 618.449219 650.319336 L 618.449219 636.300781 L 620.167969 636.300781 L 620.167969 650.319336 Z " fill="rgb(0, 0, 0)" fill-opacity="1.000000" />
<path d="M 618.449219 663.319336 L 618.449219 649.300781 L 620.167969 649.300781 L 620.167969 663.319336 Z " fill="rgb(0, 0, 0)" fill-opacity="1.000000" />
<path d="M 618.449219 676.319336 L 618.449219 662.300781 L 620.167969 662.300781 L 620.167969 676.319336 Z " fill="rgb(0, 0, 0)" fill-opacity="1.000000" />
<path d="M 618.449219 689.319336 L 618.449219 675.300781 L 620.167969 675.300781 L 620.167969 689.319336 Z " fill="rgb(0, 0, 0)" fill-opacity="1.000000" />
<path d="M 618.449219 702.319336 L 618.449219 688.300781 L 620.167969 688.300781 L 620.167969 702.319336 Z " fill="rgb(0, 0, 0)" fill-opacity="1.000000" />
<path d="M 6.892578 7.797852 L 6.892578 5.950195 L 13.729980 5.950195 L 13.729980 7.797852 Z " fill="rgb(0, 0, 0)" fill-opacity="1.000000" />
<path d="M 13.892578 7.797852 L 13.892578 5.950195 L 20.729980 5.950195 L 20.729980 7.797852 Z " fill="rgb(0, 0, 0)" fill-opacity="1.000000" />
<path d="M 20.892578 7.797852 L 20.892578 5.950195 L 27.729980 5.950195 L 27.729980 7.797852 Z " fill="rgb(0, 0, 0)" fill-opacity="1.000000" />
<path d="M 27.892578 7.797852 L 27.892578 5.950195 L 34.729980 5.950195 L 34.729980 7.797852 Z " fill="rgb(0, 0, 0)" fill-opacity="1.000000" />
<path d="M 34.892578 7.797852 L 34.892578 5.950195 L 41.729980 5.950195 L 41.729980 7.797852 Z " fill="rgb(0, 0, 0)" fill-opacity="1.000000" />
<path d="M 41.892578 7.797852 L 41.892578 5.950195 L 48.729980 5.950195 L 48.729980 7.797852 Z " fill="rgb(0, 0, 0)" fill-opacity="1.000000" />
<path d="M 48.892578 7.797852 L 48.892578 5.950195 L 55.729980 5.950195 L 55.729980 7.797852 Z " fill="rgb(0, 0, 0)" fill-opacity="1.000000" />
<path d="M 55.892578 7.797852 L 55.892578 5.950195 L 62.729980 5.950195 L 62.729980 7.797852 Z " fill="rgb(0, 0, 0)" fill-opacity="1.000000" />
<path d="M 62.892578 7.797852 L 62.892578 5.950195 L 69.729980 5.950195 L 69.729980 7.797852 Z " fill="rgb(0, 0, 0)" fill-opacity="1.000000" />
<path d="M 69.892578 7.797852 L 69.892578 5.950195 L 76.729980 5.950195 L 76.729980 7.797852 Z " fill="rgb(0, 0, 0)" fill-opacity="1.000000" />
<path d="M 76.892578 7.797852 L 76.892578 5.950195 L 83.729980 5.950195 L 83.729980 7.797852 Z " fill="rgb(0, 0, 0)" fill-opacity="1.000000" />
<path d="M 83.892578 7.797852 L 83.892578 5.950195 L 90.729980 5.950195 L 90.729980 7.797852 Z " fill="rgb(0, 0, 0)" fill-opacity="1.000000" />
<path d="M 90.892578 7.797852 L 90.892578 5.950195 L 97.729980 5.950195 L 97.729980 7.797852 Z " fill="rgb(0, 0, 0)" fill-opacity="1.000000" />
<path d="M 97.892578 7.797852 L 97.892578 5.950195 L 104.729980 5.950195 L 104.729980 7.797852 Z " fill="rgb(0, 0, 0)" fill-opacity="1.000000" />
<path d="M 104.892578 7.797852 L 104.892578 5.950195 L 111.729980 5.950195 L 111.729980 7.797852 Z " fill="rgb(0, 0, 0)" fill-opacity="1.000000" />
<path d="M 111.892578 7.797852 L 111.892578 5.950195 L 118.729980 5.950195 L 118.729980 7.797852 Z " fill="rgb(0, 0, 0)" fill-opacity="1.000000" />
<path d="M 118.892578 7.797852 L 118.892578 5.950195 L 125.729980 5.950195 L 125.729980 7.797852 Z " fill="rgb(0, 0, 0)" fill-opacity="1.000000" />
<path d="M 125.892578 7.797852 L 125.892578 5.950195 L 132.729980 5.950195 L 132.729980 7.797852 Z " fill="rgb(0, 0, 0)" fill-opacity="1.000000" />
<path d="M 132.892578 7.797852 L 132.892578 5.950195 L 139.729980 5.950195 L 139.729980 7.797852 Z " fill="rgb(0, 0, 0)" fill-opacity="1.000000" />
<path d="M 139.892578 7.797852 L 139.892578 5.950195 L 146.729980 5.950195 L 146.729980 7.797852 Z " fill="rgb(0, 0, 0)" fill-opacity="1.000000" />
<path d="M 146.892578 7.797852 L 146.892578 5.950195 L 153.729980 5.950195 L 153.729980 7.797852 Z " fill="rgb(0, 0, 0)" fill-opacity="1.000000" />
<path d="M 153.892578 7.797852 L 153.892578 5.950195 L 160.729980 5.950195 L 160.729980 7.797852 Z " fill="rgb(0, 0, 0)" fill-opacity="1.000000" />
<path d="M 160.892578 7.797852 L 160.892578 5.950195 L 167.729980 5.950195 L 167.729980 7.797852 Z " fill="rgb(0, 0, 0)" fill-opacity="1.000000" />
<path d="M 167.892578 7.797852 L 167.892578 5.950195 L 174.729980 5.950195 L 174.729980 7.797852 Z " fill="rgb(0, 0, 0)" fill-opacity="1.000000" />
<path d="M 174.892578 7.797852 L 174.892578 5.950195 L 181.729980 5.950195 L 181.729980 7.797852 Z " fill="rgb(0, 0, 0)" fill-opacity="1.000000" />
<path d="M 181.892578 7.797852 L 181.892578 5.950195 L 188.729980 5.950195 L 188.729980 7.797852 Z " fill="rgb(0, 0, 0)" fill-opacity="1.000000" />
<path d="M 188.892578 7.797852 L 188.892578 5.950195 L 195.729980 5.950195 L 195.729980 7.797852 Z " fill="rgb(0, 0, 0)" fill-opacity="1.000000" />
<path d="M 195.892578 7.797852 L 195.892578 5.950195 L 202.729980 5.950195 L 202.729980 7.797852 Z " fill="rgb(0, 0, 0)" fill-opacity="1.000000" />
<path d="M 202.892578 7.797852 L 202.892578 5.950195 L 209.729980 5.950195 L 209.729980 7.797852 Z " fill="rgb(0, 0, 0)" fill-opacity="1.000000" />
<path d="M 209.892578 7.797852 L 209.892578 5.950195 L 216.729980 5.950195 L 216.729980 7.797852 Z " fill="rgb(0, 0, 0)" fill-opacity="1.000000" />
<path d="M 216.892578 7.797852 L 216.892578 5.950195 L 223.729980 5.950195 L 223.729980 7.797852 Z " fill="rgb(0, 0, 0)" fill-opacity="1.000000" />
<path d="M 223.892578 7.797852 L 223.892578 5.950195 L 230.729980 5.950195 L 230.729980 7.797852 Z " fill="rgb(0, 0, 0)" fill-opacity="1.000000" />
<path d="M 230.892578 7.797852 L 230.892578 5.950195 L 237.729980 5.950195 L 237.729980 7.797852 Z " fill="rgb(0, 0, 0)" fill-opacity="1.000000" />
<path d="M 237.892578 7.797852 L 237.892578 5.950195 L 244.729980 5.950195 L 244.729980 7.797852 Z " fill="rgb(0, 0, 0)" fill-opacity="1.000000" />
<path d="M 244.892578 7.797852 L 244.892578 5.950195 L 251.729980 5.950195 L 251.729980 7.797852 Z " fill="rgb(0, 0, 0)" fill-opacity="1.000000" />
<path d="M 251.892578 7.797852 L 251.892578 5.950195 L 258.729980 5.950195 L 258.729980 7.797852 Z " fill="rgb(0, 0, 0)" fill-opacity="1.000000" />
<path d="M 258.892578 7.797852 L 258.892578 5.950195 L 265.729980 5.950195 L 265.729980 7.797852 Z " fill="rgb(0, 0, 0)" fill-opacity="1.000000" />
<path d="M 265.892578 7.797852 L 265.892578 5.950195 L 272.729980 5.950195 L 272.729980 7.797852 Z " fill="rgb(0, 0, 0)" fill-opacity="1.000000" />
<path d="M 272.892578 7.797852 L 272.892578 5.950195 L 279.729980 5.950195 L 279.729980 7.797852 Z " fill="rgb(0, 0, 0)" fill-opacity="1.000000" />
<path d="M 279.892578 7.797852 L 279.892578 5.950195 L 286.729980 5.950195 L 286.729980 7.797852 Z " fill="rgb(0, 0, 0)" fill-opacity="1.000000" />
<path d="M 286.892578 7.797852 L 286.892578 5.950195 L 293.729980 5.950195 L 293.729980 7.797852 Z " fill="rgb(0, 0, 0)" fill-opacity="1.000000" />
<path d="M 293.892578 7.797852 L 293.892578 5.950195 L 300.729980 5.950195 L 300.729980 7.797852 Z " fill="rgb(0, 0, 0)" fill-opacity="1.000000" />
<path d="M 300.892578 7.797852 L 300.892578 5.950195 L 307.729980 5.950195 L 307.729980 7.797852 Z " fill="rgb(0, 0, 0)" fill-opacity="1.000000" />
<path d="M 307.892578 7.797852 L 307.892578 5.950195 L 314.729980 5.950195 L 314.729980 7.797852 Z " fill="rgb(0, 0, 0)" fill-opacity="1.000000" />
<path d="M 314.892578 7.797852 L 314.892578 5.950195 L 321.729980 5.950195 L 321.729980 7.797852 Z " fill="rgb(0, 0, 0)" fill-opacity="1.000000" />
<path d="M 321.892578 7.797852 L 321.892578 5.950195 L 328.729980 5.950195 L 328.729980 7.797852 Z " fill="rgb(0, 0, 0)" fill-opacity="1.000000" />
<path d="M 328.892578 7.797852 L 328.892578 5.950195 L 335.729980 5.950195 L 335.729980 7.797852 Z " fill="rgb(0, 0, 0)" fill-opacity="1.000000" />
<path d="M 335.892578 7.797852 L 335.892578 5.950195 L 342.729980 5.950195 L 342.729980 7.797852 Z " fill="rgb(0, 0, 0)" fill-opacity="1.000000" />
<path d="M 342.892578 7.797852 L 342.892578 5.950195 L 349.729980 5.950195 L 349.729980 7.797852 Z " fill="rgb(0, 0, 0)" fill-opacity="1.000000" />
<path d="M 349.892578 7.797852 L 349.892578 5.950195 L 356.729980 5.950195 L 356.729980 7.797852 Z " fill="rgb(0, 0, 0)" fill-opacity="1.000000" />
<path d="M 356.892578 7.797852 L 356.892578 5.950195 L 363.729980 5.950195 L 363.729980 7.797852 Z " fill="rgb(0, 0, 0)" fill-opacity="1.000000" />
<path d="M 363.892578 7.797852 L 363.892578 5.950195 L 370.729980 5.950195 L 370.729980 7.797852 Z " fill="rgb(0, 0, 0)" fill-opacity="1.000000" />
<path d="M 370.892578 7.797852 L 370.892578 5.950195 L 377.729980 5.950195 L 377.729980 7.797852 Z " fill="rgb(0, 0, 0)" fill-opacity="1.000000" />
<path d="M 377.892578 7.797852 L 377.892578 5.950195 L 384.729980 5.950195 L 384.729980 7.797852 Z " fill="rgb(0, 0, 0)" fill-opacity="1.000000" />
<path d="M 384.892578 7.797852 L 384.892578 5.950195 L 391.729980 5.950195 L 391.729980 7.797852 Z " fill="rgb(0, 0, 0)" fill-opacity="1.000000" />
<path d="M 391.892578 7.797852 L 391.892578 5.950195 L 398.729980 5.950195 L 398.729980 7.797852 Z " fill="rgb(0, 0, 0)" fill-opacity="1.000000" />
<path d="M 398.892578 7.797852 L 398.892578 5.950195 L 405.729980 5.950195 L 405.729980 7.797852 Z " fill="rgb(0, 0, 0)" fill-opacity="1.000000" />
<path d="M 405.892578 7.797852 L 405.892578 5.950195 L 412.729980 5.950195 L 412.729980 7.797852 Z " fill="rgb(0, 0, 0)" fill-opacity="1.000000" />
<path d="M 412.892578 7.797852 L 412.892578 5.950195 L 419.729980 5.950195 L 419.729980 7.797852 Z " fill="rgb(0, 0, 0)" fill-opacity="1.000000" />
<path d="M 419.892578 7.797852 L 419.892578 5.950195 L 426.729980 5.950195 L 426.729980 7.797852 Z " fill="rgb(0, 0, 0)" fill-opacity="1.000000" />
<path d="M 426.892578 7.797852 L 426.892578 5.950195 L 433.729980 5.950195 L 433.729980 7.797852 Z " fill="rgb(0, 0, 0)" fill-opacity="1.000000" />
<path d="M 433.892578 7.797852 L 433.892578 5.950195 L 440.729980 5.950195 L 440.729980 7.797852 Z " fill="rgb(0, 0, 0)" fill-opacity="1.000000" />
<path d="M 440.892578 7.797852 L 440.892578 5.950195 L 447.729980 5.950195 L 447.729980 7.797852 Z " fill="rgb(0, 0, 0)" fill-opacity="1.000000" />
<path d="M 447.892578 7.797852 L 447.892578 5.950195 L 454.729980 5.950195 L 454.729980 7.797852 Z " fill="rgb(0, 0, 0)" fill-opacity="1.000000" />
<path d="M 454.892578 7.797852 L 454.892578 5.950195 L 461.729980 5.950195 L 461.729980 7.797852 Z " fill="rgb(0, 0, 0)" fill-opacity="1.000000" />
<path d="M 461.892578 7.797852 L 461.892578 5.950195 L 468.729980 5.950195 L 468.729980 7.797852 Z " fill="rgb(0, 0, 0)" fill-opacity="1.000000" />
<path d="M 468.892578 7.797852 L 468.892578 5.950195 L 475.729980 5.950195 L 475.729980 7.797852 Z " fill="rgb(0, 0, 0)" fill-opacity="1.000000" />
<path d="M 475.892578 7.797852 L 475.892578 5.950195 L 482.729980 5.950195 L 482.729980 7.797852 Z " fill="rgb(0, 0, 0)" fill-opacity="1.000000" />
<path d="M 482.892578 7.797852 L 482.892578 5.950195 L 489.729980 5.950195 L 489.729980 7.797852 Z " fill="rgb(0, 0, 0)" fill-opacity="1.000000" />
<path d="M 489.892578 7.797852 L 489.892578 5.950195 L 496.729980 5.950195 L 496.729980 7.797852 Z " fill="rgb(0, 0, 0)" fill-opacity="1.000000" />
<path d="M 496.892578 7.797852 L 496.892578 5.950195 L 503.729980 5.950195 L 503.729980 7.797852 Z " fill="rgb(0, 0, 0)" fill-opacity="1.000000" />
<path d="M 503.892578 7.797852 L 503.892578 5.950195 L 510.729980 5.950195 L 510.729980 7.797852 Z " fill="rgb(0, 0, 0)" fill-opacity="1.000000" />
<path d="M 510.892578 7.797852 L 510.892578 5.950195 L 517.729980 5.950195 L 517.729980 7.797852 Z " fill="rgb(0, 0, 0)" fill-opacity="1.000000" />
<path d="M 517.892578 7.797852 L 517.892578 5.950195 L 524.729980 5.950195 L 524.729980 7.797852 Z " fill="rgb(0, 0, 0)" fill-opacity="1.000000" />
<path d="M 524.892578 7.797852 L 524.892578 5.950195 L 531.729980 5.950195 L 531.729980 7.797852 Z " fill="rgb(0, 0, 0)" fill-opacity="1.000000" />
<path d="M 531.892578 7.797852 L 531.892578 5.950195 L 538.729980 5.950195 L 538.729980 7.797852 Z " fill="rgb(0, 0, 0)" fill-opacity="1.000000" />
<path d="M 538.892578 7.797852 L 538.892578 5.950195 L 545.729980 5.950195 L 545.729980 7.797852 Z " fill="rgb(0, 0, 0)" fill-opacity="1.000000" />
<path d="M 545.892578 7.797852 L 545.892578 5.950195 L 552.729980 5.950195 L 552.729980 7.797852 Z " fill="rgb(0, 0, 0)" fill-opacity="1.000000" />
<path d="M 552.892578 7.797852 L 552.892578 5.950195 L 559.729980 5.950195 L 559.729980 7.797852 Z " fill="rgb(0, 0, 0)" fill-opacity="1.000000" />
<path d="M 559.892578 7.797852 L 559.892578 5.950195 L 566.729980 5.950195 L 566.729980 7.797852 Z " fill="rgb(0, 0, 0)" fill-opacity="1.000000" />
<path d="M 566.892578 7.797852 L 566.892578 5.950195 L 573.729980 5.950195 L 573.729980 7.797852 Z " fill="rgb(0, 0, 0)" fill-opacity="1.000000" />
<path d="M 573.892578 7.797852 L 573.892578 5.950195 L 580.729980 5.950195 L 580.729980 7.797852 Z " fill="rgb(0, 0, 0)" fill-opacity="1.000000" />
<path d="M 580.892578 7.797852 L 580.892578 5.950195 L 587.729980 5.950195 L 587.729980 7.797852 Z " fill="rgb(0, 0, 0)" fill-opacity="1.000000" />
<path d="M 587.892578 7.797852 L 587.892578 5.950195 L 594.729980 5.950195 L 594.729980 7.797852 Z " fill="rgb(0, 0, 0)" fill-opacity="1.000000" />
<path d="M 594.892578 7.797852 L 594.892578 5.950195 L 601.729980 5.950195 L 601.729980 7.797852 Z " fill="rgb(0, 0, 0)" fill-opacity="1.000000" />
<path d="M 601.892578 7.797852 L 601.892578 5.950195 L 608.729980 5.950195 L 608.729980 7.797852 Z " fill="rgb(0, 0, 0)" fill-opacity="1.000000" />
<path d="M 608.892578 7.797852 L 608.892578 5.950195 L 615.729980 5.950195 L 615.729980 7.797852 Z " fill="rgb(0, 0, 0)" fill-opacity="1.000000" />
<path d="M 618.449219 13.319336 L 618.449219 7.797852 L 615.892578 7.797852 L 615.892578 5.950195 L 620.167969 5.950195 L 620.167969 13.319336 Z " fill="rgb(0, 0, 0)" fill-opacity="1.000000" />
</g>
</svg>